# AST/ASF file generated using VICON BodyLanguage
# -----------------------------------------------
:version 1.10
:name VICON
:units
  mass 1.0
  length 0.45
  angle deg
:documentation
   .ast/.asf automatically generated from VICON data using
   VICON BodyBuilder and BodyLanguage model FoxedUp or BRILLIANT.MOD
:root
   order TX TY TZ RX RY RZ
   axis XYZ
   position 0 0 0  
   orientation 0 0 0 
:bonedata
  begin
     id 1 
     name lhipjoint
     direction 0.566809 -0.746272 0.349008 
     length 2.40479 
     axis 0 0 0  XYZ
  end
  begin
     id 2 
     name lfemur
     direction 0.34202 -0.939693 0  
     length 7.1578  
     axis 0 0 20  XYZ
    dof rx ry rz
    limits (-160.0 20.0)
           (-70.0 70.0)
           (-60.0 70.0)
  end
  begin
     id 3 
     name ltibia
     direction 0.34202 -0.939693 0   
     length 7.49137   
     axis 0 0 20   XYZ
    dof rx
    limits (-10.0 170.0)
  end
  begin
     id 4 
     name lfoot
     direction 0.0665746 -0.182912 0.980873   
     length 2.36784   
     axis -90 7.62852e-016 20   XYZ
    dof rx rz
    limits (-45.0 90.0)
           (-70.0 20.0)
  end
  begin
     id 5 
     name ltoes
     direction 1.53601e-011 -4.22058e-011 1   
     length 1.18966   
     axis -90 7.62852e-016 20   XYZ
    dof rx
    limits (-90.0 20.0)
  end
  begin
     id 6 
     name rhipjoint
     direction -0.550236 -0.756381 0.353735   
     length 2.37265  
     axis 0 0 0  XYZ 
  end
  begin
     id 7 
     name rfemur
     direction -0.34202 -0.939693 0   
     length 7.43386   
     axis 0 0 -20   XYZ
    dof rx ry rz
    limits (-160.0 20.0)
           (-70.0 70.0)
           (-70.0 60.0)
  end
  begin
     id 8 
     name rtibia
     direction -0.34202 -0.939693 0   
     length 7.50908   
     axis 0 0 -20   XYZ
    dof rx
    limits (-10.0 170.0)
 end
 begin
     id 9 
     name rfoot
     direction -0.0683029 -0.187661 0.979856   
     length 2.41173  
     axis -90 -7.62852e-016 -20   XYZ
    dof rx rz
    limits (-45.0 90.0)
           (-20.0 70.0)
  end
  begin
     id 10 
     name rtoes
     direction -1.53528e-011 -4.21968e-011 1   
     length 1.21082   
     axis -90 -7.62852e-016 -20   XYZ
    dof rx
    limits (-90.0 20.0)
  end
  begin
     id 11 
     name lowerback
     direction 0.013823 0.995423 -0.0945635   
     length 2.04495   
     axis 0 0 0   XYZ
    dof rx ry rz
    limits (-20.0 45.0)
           (-30.0 30.0)
           (-30.0 30.0)
  end
  begin
     id 12 
     name upperback
     direction 0.0276657 0.9994 -0.020853   
     length 2.05008   
     axis 0 0 0   XYZ
    dof rx ry rz
    limits (-20.0 45.0)
           (-30.0 30.0)
           (-30.0 30.0)
  end
  begin
     id 13 
     name thorax
     direction 0.019782 0.999531 0.0233827   
     length 2.06488   
     axis 0 0 0   XYZ
    dof rx ry rz
    limits (-20.0 45.0)
           (-30.0 30.0)
           (-30.0 30.0)
  end
  begin
     id 14 
     name lowerneck
     direction -0.0308541 0.994709 0.0979874   
     length 1.75553   
     axis 0 0 0   XYZ
    dof rx ry rz
    limits (-20.0 45.0)
           (-30.0 30.0)
           (-30.0 30.0)
  end
  begin
     id 15 
     name upperneck
     direction 0.0588398 0.995804 -0.0700903   
     length 1.76878   
     axis 0 0 0   XYZ
    dof rx ry rz
    limits (-20.0 45.0)
           (-30.0 30.0)
           (-30.0 30.0)
  end
  begin
     id 16
     name head
     direction 0.0209966 0.999159 -0.0352225  
     length 1.77193  
     axis 0 0 0   XYZ
    dof rx ry rz
    limits (-20.0 45.0)
           (-30.0 30.0)
           (-30.0 30.0)
  end
  begin
     id 17 
     name lclavicle
     direction 0.938182 0.335073 -0.0868338  
     length 3.58396  
     axis 0 0 0   XYZ
    dof ry rz
    limits (-20.0 10.0)
           (0.0 20.0)
  end
  begin
     id 18 
     name lhumerus
     direction 1 -4.48971e-011 -1.26313e-017   
     length 4.983   
     axis 180 -30 -90   XYZ
    dof rx ry rz
    limits (-60.0 90.0)
           (-90.0 90.0)
           (-90.0 90.0)
  end
  begin
     id 19
     name lradius
     direction 1 -4.48948e-011 -5.89033e-027   
     length 3.48356   
     axis 180 -30 -90   XYZ
    dof rx
    limits (-10.0 170.0)
  end
  begin
     id 20
     name lwrist
     direction 1 -4.48977e-011 -1.48983e-026   
     length 1.74178   
     axis 9.0955e-015 90 90   XYZ
    dof ry
    limits (-180.0 0.0)
 end
  begin
     id 21 
     name lhand
     direction 1 -4.49046e-011 -2.98066e-026   
     length 0.715259   
     axis 1.90115e-014 90 90   XYZ
    dof rx rz
    limits (-90.0 90.0)
           (-45.0 45.0)
  end
  begin
     id 22 
     name lfingers
     direction 1 -4.48907e-011 -5.95731e-026   
     length 0.576661   
     axis 3.80223e-014 90 90   XYZ
    dof rx
    limits (0.0 90.0)
  end
  begin
     id 23
     name lthumb
     direction 0.707107 -6.34963e-011 0.707107   
     length 0.827973   
     axis -90 45 -3.84942e-014   XYZ
    dof rx rz
    limits (-45.0 45.0)
           (-45.0 45.0)
  end
  begin
     id 24 
     name rclavicle
     direction -0.909637 0.398485 -0.11735   
     length 3.44819  
     axis 0 0 0   XYZ 
    dof ry rz
    limits (-10.0 20.0)
           (-20.0 0.0)
  end
  begin
     id 25 
     name rhumerus
     direction -1 -4.48978e-011 -1.09333e-027  
     length 5.2419   
     axis 180 30 90   XYZ
    dof rx ry rz
    limits (-90.0 60.0)
           (-90.0 90.0)
           (-90.0 90.0)
  end
  begin
     id 26 
     name rradius
     direction -1 -4.48953e-011 -7.61841e-027   
     length 3.44417   
     axis 180 30 90   XYZ
    dof rx
    limits (-10.0 170.0)
  end
  begin
     id 27 
     name rwrist
     direction -1 -4.48977e-011 -1.48983e-026   
     length 1.72209   
     axis 9.0955e-015 -90 -90   XYZ
    dof ry
    limits (-180.0 0.0)
  end
  begin
     id 28
     name rhand
     direction -1 -4.49027e-011 -2.98038e-026   
     length 0.622529   
     axis 1.90115e-014 -90 -90   XYZ
    dof rx rz
    limits (-90.0 90.0)
           (-45.0 45.0)
  end
  begin
     id 29
     name rfingers
     direction -1 -4.48838e-011 -5.95531e-026   
     length 0.501899   
     axis 3.80223e-014 -90 -90   XYZ
    dof rx
    limits (0.0 90.0)
  end
  begin
     id 30
     name rthumb
     direction -0.707107 -6.34937e-011 0.707107   
     length 0.720629   
     axis -90 -45 3.84942e-014   XYZ
    dof rx rz
    limits (-45.0 45.0)
           (-45.0 45.0)
  end
:hierarchy
  begin
    root lhipjoint rhipjoint lowerback
    lhipjoint lfemur
    lfemur ltibia
    ltibia lfoot
    lfoot ltoes
    rhipjoint rfemur
    rfemur rtibia
    rtibia rfoot
    rfoot rtoes
    lowerback upperback
    upperback thorax
    thorax lowerneck lclavicle rclavicle
    lowerneck upperneck
    upperneck head
    lclavicle lhumerus
    lhumerus lradius
    lradius lwrist
    lwrist lhand lthumb
    lhand lfingers
    rclavicle rhumerus
    rhumerus rradius
    rradius rwrist
    rwrist rhand rthumb
    rhand rfingers
  end

#!OML:ASF F:\VICON\USERDATA\Patient Classification 1\PLAYGROUND\JustinFriday\JustinFriday.ASF
:FULLY-SPECIFIED
:DEGREES
757
root 28.3214 29.9522 -4.19852 -22.6931 36.149 1.57694
lowerback 21.8948 1.23217 0.970979
upperback 14.0037 2.27762 0.300114
thorax 3.12067 1.4321 -0.63333
lowerneck 4.66859 -7.42445 -11.1285
upperneck 32.1939 -8.4158 -2.18126
head 10.027 -5.08346 0.57042
rclavicle -7.11649e-014 5.28767e-014
rhumerus -43.9565 3.79383 -77.6593
rradius 43.0565
rwrist 33.0181
rhand -50.7702 -8.12064
rfingers 7.12502
rthumb -23.3282 -36.7271
lclavicle -7.11649e-014 5.28767e-014
lhumerus 62.0667 -0.00673515 48.6852
lradius 75.0324
lwrist 3.72068
lhand -12.766 -24.3181
lfingers 7.12502
lthumb 13.3187 5.23625
rfemur -46.6112 -15.3781 6.86337
rtibia 72.8069
rfoot 4.0627 -10.9068
rtoes 14.511
lfemur 10.8997 1.37672 -10.1739
ltibia 53.6263
lfoot 11.9175 -43.148
ltoes 37.9609
758
root 28.3101 29.9172 -4.13954 -22.6846 36.292 1.7806
lowerback 21.388 1.46037 0.989647
upperback 14.2545 2.58541 0.407847
thorax 3.65428 1.59449 -0.557715
lowerneck 4.52789 -7.62318 -10.6198
upperneck 31.9358 -8.61159 -2.54881
head 9.91066 -5.14107 0.346309
rclavicle -1.11319e-014 8.54774e-015
rhumerus -44.6162 3.06981 -77.4583
rradius 43.974
rwrist 33.2569
rhand -50.9875 -8.85239
rfingers 7.12502
rthumb -23.5366 -37.4323
lclavicle -1.11319e-014 8.54774e-015
lhumerus 62.7619 -0.0796763 49.1839
lradius 74.5958
lwrist 3.74903
lhand -12.7916 -24.6531
lfingers 7.12502
lthumb 13.2941 4.90285
rfemur -46.0534 -15.5649 6.17706
rtibia 72.7607
rfoot 4.17724 -11.3755
rtoes 15.6523
lfemur 10.9067 1.50646 -9.88285
ltibia 53.8988
lfoot 13.9595 -43.0298
ltoes 39.8898
759
root 28.2928 29.8853 -4.08058 -22.7869 36.3973 1.86002
lowerback 20.8426 1.69457 1.01311
upperback 14.425 2.89693 0.522075
thorax 4.11741 1.75552 -0.473903
lowerneck 4.67276 -7.81023 -10.214
upperneck 31.7155 -8.84453 -2.79541
head 9.77129 -5.21734 0.190533
rclavicle -1.23246e-014 -1.78906e-014
rhumerus -45.3634 2.30188 -77.3683
rradius 44.837
rwrist 33.3832
rhand -51.0055 -8.67552
rfingers 7.12502
rthumb -23.5538 -37.2532
lclavicle -1.23246e-014 -1.78906e-014
lhumerus 63.2983 -0.343109 49.5408
lradius 74.148
lwrist 3.93704
lhand -13.1569 -25.1694
lfingers 7.12502
lthumb 12.942 4.40925
rfemur -45.4753 -15.6768 5.62266
rtibia 72.7484
rfoot 3.39104 -12.0141
rtoes 19.6778
lfemur 10.9 1.80807 -9.34814
ltibia 54.1796
lfoot 15.4226 -43.2832
ltoes 40.5825
760
root 28.2751 29.8521 -4.01333 -22.798 36.8407 2.24169
lowerback 21.217 1.56525 0.696415
upperback 14.4101 2.68715 0.403823
thorax 3.90362 1.63376 -0.402979
lowerneck 3.79429 -7.66672 -10.7306
upperneck 32.1286 -8.56133 -2.60705
head 10.1195 -5.1392 0.310969
rclavicle 1.0138e-013 -5.84427e-014
rhumerus -45.9035 2.47832 -77.6806
rradius 45.8241
rwrist 33.2732
rhand -50.4058 -7.74862
rfingers 7.12502
rthumb -22.9786 -36.399
lclavicle 1.0138e-013 -5.84427e-014
lhumerus 63.1987 0.187168 49.2947
lradius 73.7231
lwrist 4.3444
lhand -13.7352 -25.6017
lfingers 7.12502
lthumb 12.3844 4.01147
rfemur -44.7124 -15.9475 4.55009
rtibia 72.7975
rfoot 4.17159 -11.8515
rtoes 18.172
lfemur 11.0019 1.91272 -9.24923
ltibia 54.4433
lfoot 17.2581 -43.4584
ltoes 40.9904
761
root 28.2597 29.815 -3.94804 -22.7366 37.2707 2.5983
lowerback 21.5166 1.31708 0.518267
upperback 14.3922 2.34075 0.1993
thorax 3.73385 1.45651 -0.473065
lowerneck 3.06649 -7.47561 -10.8398
upperneck 32.1589 -8.18711 -2.72657
head 10.2484 -4.99776 0.286484
rclavicle 2.28602e-015 5.1684e-015
rhumerus -46.4139 2.8869 -78.149
rradius 46.7264
rwrist 33.2715
rhand -49.4178 -6.07207
rfingers 7.12502
rthumb -22.0302 -34.8373
lclavicle 2.28602e-015 5.1684e-015
lhumerus 62.9818 1.01756 48.8359
lradius 73.2947
lwrist 4.652
lhand -14.0322 -26.0129
lfingers 7.12502
lthumb 12.098 3.61733
rfemur -44.0009 -16.1686 3.50654
rtibia 72.8593
rfoot 4.20065 -12.0483
rtoes 19.2697
lfemur 11.0439 1.78002 -9.29355
ltibia 54.7281
lfoot 19.3539 -43.2944
ltoes 41.9007
762
root 28.243 29.7755 -3.89123 -22.7553 37.4765 2.8121
lowerback 21.3569 1.32226 0.502199
upperback 14.3975 2.34647 0.123417
thorax 3.82133 1.46325 -0.540413
lowerneck 3.6378 -7.46359 -10.3309
upperneck 31.5789 -8.20637 -3.05629
head 9.87379 -4.96643 0.128732
rclavicle -6.81831e-014 3.53837e-014
rhumerus -47.3079 2.35627 -78.2774
rradius 47.6087
rwrist 34.2895
rhand -49.251 -6.44127
rfingers 7.12502
rthumb -21.87 -35.2253
lclavicle -6.81831e-014 3.53837e-014
lhumerus 62.9547 1.3253 48.67
lradius 73.0076
lwrist 4.95331
lhand -14.2039 -26.4555
lfingers 7.12502
lthumb 11.9325 3.18443
rfemur -43.359 -16.1947 2.70666
rtibia 72.9031
rfoot 4.00233 -12.4084
rtoes 21.7507
lfemur 11.0588 1.67445 -9.17735
ltibia 55.0772
lfoot 20.1891 -43.3483
ltoes 42.2724
763
root 28.2284 29.7424 -3.84128 -22.9217 37.476 2.86692
lowerback 21.4552 1.31488 0.671705
upperback 14.3408 2.36449 0.0593153
thorax 3.71887 1.48733 -0.712209
lowerneck 4.0758 -7.51779 -9.99478
upperneck 31.1974 -8.27709 -3.39868
head 9.61701 -4.9836 -0.0199732
rclavicle 4.47266e-014 1.8487e-014
rhumerus -48.0717 1.77757 -78.3261
rradius 48.4193
rwrist 35.6543
rhand -49.8573 -9.44358
rfingers 7.12502
rthumb -22.4521 -38.1585
lclavicle 4.47266e-014 1.8487e-014
lhumerus 62.8375 1.54225 48.7287
lradius 72.7748
lwrist 5.06309
lhand -14.6183 -26.7934
lfingers 7.12502
lthumb 11.5328 2.86928
rfemur -42.6521 -16.104 2.16935
rtibia 72.8765
rfoot 3.80258 -12.6899
rtoes 23.6128
lfemur 11.0913 1.88237 -8.73126
ltibia 55.4888
lfoot 20.7109 -43.6295
ltoes 42.4822
764
root 28.2134 29.7104 -3.79205 -22.9808 37.59 3.08778
lowerback 20.6825 1.7207 0.5024
upperback 14.5143 2.87206 0.20519
thorax 4.29096 1.73154 -0.511377
lowerneck 4.84062 -7.75524 -10.1701
upperneck 31.16 -8.81084 -2.80844
head 9.52636 -5.18706 0.204335
rclavicle 5.26779e-015 9.54166e-015
rhumerus -49.0752 0.503324 -78.0093
rradius 49.3987
rwrist 36.5827
rhand -50.0463 -11.5995
rfingers 7.12502
rthumb -22.6335 -40.2924
lclavicle 5.26779e-015 9.54166e-015
lhumerus 63.4098 0.891917 49.5245
lradius 72.4265
lwrist 4.79778
lhand -14.7644 -27.1647
lfingers 7.12502
lthumb 11.392 2.50581
rfemur -41.9391 -16.1126 1.52177
rtibia 72.83
rfoot 3.77154 -12.863
rtoes 23.511
lfemur 11.0642 2.14216 -8.41447
ltibia 55.9324
lfoot 21.7758 -43.87
ltoes 42.8114
765
root 28.1951 29.674 -3.73996 -22.997 37.7773 3.31934
lowerback 21.3016 1.29053 0.580307
upperback 14.377 2.32272 -0.134235
thorax 3.84035 1.47226 -0.853918
lowerneck 3.6831 -7.23147 -11.4923
upperneck 32.0081 -8.08161 -1.94896
head 10.1485 -4.9441 0.703299
rclavicle 2.98177e-016 -3.29983e-014
rhumerus -49.6296 1.17298 -78.7873
rradius 50.2831
rwrist 37.1142
rhand -50.1632 -12.4591
rfingers 7.12502
rthumb -22.7457 -41.1383
lclavicle 2.98177e-016 -3.29983e-014
lhumerus 62.7795 1.81429 49.2155
lradius 72.1863
lwrist 4.8832
lhand -15.5315 -27.4128
lfingers 7.12502
lthumb 10.6521 2.29719
rfemur -41.2721 -16.0693 0.850153
rtibia 72.787
rfoot 3.95832 -12.9806
rtoes 21.9782
lfemur 10.9949 2.23542 -8.16735
ltibia 56.3721
lfoot 22.9288 -44.0539
ltoes 42.8446
766
root 28.1778 29.6357 -3.68997 -23.0091 37.7837 3.46494
lowerback 21.1684 1.29654 0.733476
upperback 14.3395 2.35389 -0.275994
thorax 3.87737 1.50574 -1.09309
lowerneck 4.38485 -7.14465 -10.5547
upperneck 31.39 -7.95283 -2.57385
head 9.6912 -4.82148 0.389578
rclavicle 3.39922e-014 -1.61016e-014
rhumerus -50.6746 0.880924 -79.2084
rradius 51.2674
rwrist 37.4388
rhand -50.3575 -12.6928
rfingers 7.12502
rthumb -22.9322 -41.3489
lclavicle 3.39922e-014 -1.61016e-014
lhumerus 62.7936 2.08412 49.0847
lradius 72.0186
lwrist 5.43773
lhand -16.3642 -27.4293
lfingers 7.12502
lthumb 9.8488 2.3204
rfemur -40.6845 -15.8586 0.332871
rtibia 72.7285
rfoot 3.91605 -13.1594
rtoes 21.6407
lfemur 10.9324 2.48691 -7.74048
ltibia 56.8024
lfoot 24.5669 -44.0005
ltoes 43.1859
767
root 28.1584 29.5968 -3.64455 -22.7945 37.7975 3.85954
lowerback 21.1498 1.33133 0.562451
upperback 14.3267 2.37147 -0.396741
thorax 3.87145 1.50812 -1.1287
lowerneck 4.27306 -7.12112 -10.399
upperneck 31.3616 -7.85911 -2.80133
head 9.67717 -4.78131 0.289436
rclavicle -2.30093e-014 2.08724e-014
rhumerus -51.4403 0.781955 -79.4083
rradius 52.2902
rwrist 37.9499
rhand -50.2934 -12.6584
rfingers 7.12502
rthumb -22.8707 -41.3222
lclavicle -2.30093e-014 2.08724e-014
lhumerus 62.8216 2.69623 49.0735
lradius 71.8802
lwrist 5.95927
lhand -16.1299 -27.5156
lfingers 7.12502
lthumb 10.0748 2.22319
rfemur -40.234 -15.6945 -0.325819
rtibia 72.7126
rfoot 3.76659 -13.3288
rtoes 21.8087
lfemur 10.8051 2.88051 -7.50636
ltibia 57.24
lfoot 26.2228 -43.7718
ltoes 43.9289
768
root 28.1376 29.5625 -3.60465 -22.592 37.8121 4.1028
lowerback 20.9543 1.34142 0.486312
upperback 14.3436 2.37154 -0.449046
thorax 3.98661 1.50523 -1.1344
lowerneck 4.99284 -7.23635 -8.93633
upperneck 30.1375 -7.84563 -4.33067
head 8.93994 -4.72189 -0.404306
rclavicle 5.89397e-014 -2.76311e-014
rhumerus -52.1105 0.516261 -79.5492
rradius 53.1784
rwrist 38.821
rhand -50.2028 -13.2874
rfingers 7.12502
rthumb -22.7838 -41.9619
lclavicle 5.89397e-014 -2.76311e-014
lhumerus 62.8494 3.27922 49.201
lradius 71.7017
lwrist 6.36689
lhand -15.9448 -27.7872
lfingers 7.12502
lthumb 10.2534 1.94291
rfemur -39.8941 -15.5325 -0.812048
rtibia 72.7233
rfoot 3.64118 -13.573
rtoes 22.0703
lfemur 10.5392 3.05759 -7.27975
ltibia 57.7293
lfoot 26.8422 -43.723
ltoes 44.161
769
root 28.1226 29.5237 -3.57005 -22.5919 37.8187 4.24352
lowerback 20.932 1.27504 0.703969
upperback 14.3796 2.3233 -0.58253
thorax 4.05295 1.50565 -1.38939
lowerneck 4.58176 -7.04851 -10.2095
upperneck 30.8335 -7.77641 -3.01221
head 9.40035 -4.72931 0.217766
rclavicle 9.25343e-014 -5.1684e-015
rhumerus -52.709 0.127303 -79.8704
rradius 53.8844
rwrist 39.4233
rhand -50.1708 -13.9917
rfingers 7.12502
rthumb -22.753 -42.67
lclavicle 9.25343e-014 -5.1684e-015
lhumerus 62.9517 3.88011 49.0943
lradius 71.4511
lwrist 6.85158
lhand -16.0104 -27.9291
lfingers 7.12502
lthumb 10.1901 1.80406
rfemur -39.376 -15.3629 -1.28417
rtibia 72.7143
rfoot 3.35163 -13.8179
rtoes 23.5322
lfemur 10.3919 3.09481 -7.06362
ltibia 58.2611
lfoot 27.5942 -43.825
ltoes 44.874
770
root 28.1054 29.474 -3.53495 -22.5423 37.8413 4.64886
lowerback 21.2405 1.2433 0.64719
upperback 14.426 2.28089 -0.750347
thorax 3.95861 1.49208 -1.53935
lowerneck 4.15465 -7.09045 -10.9537
upperneck 30.9909 -7.87941 -2.51161
head 9.60795 -4.82186 0.479019
rclavicle 2.55935e-014 1.27222e-014
rhumerus -53.3044 -0.028176 -80.2079
rradius 54.8676
rwrist 39.6015
rhand -49.9909 -14.0936
rfingers 7.12502
rthumb -22.5803 -42.793
lclavicle 2.55935e-014 1.27222e-014
lhumerus 63.0411 4.59905 48.9805
lradius 71.2503
lwrist 7.50173
lhand -15.9727 -28.0131
lfingers 7.12502
lthumb 10.2265 1.71833
rfemur -38.802 -15.2469 -1.97678
rtibia 72.7282
rfoot 3.05243 -13.878
rtoes 24.766
lfemur 10.3633 3.37235 -6.94655
ltibia 58.8022
lfoot 29.8425 -43.9671
ltoes 47.2489
771
root 28.0805 29.429 -3.50165 -22.0984 37.8595 5.36884
lowerback 21.5133 1.31326 0.21771
upperback 14.3936 2.30247 -0.899315
thorax 3.77906 1.47924 -1.47138
lowerneck 4.14908 -7.40553 -9.61612
upperneck 30.2243 -8.03102 -4.12271
head 9.17879 -4.87618 -0.279082
rclavicle -5.87906e-014 4.31363e-014
rhumerus -53.9532 -0.048914 -80.3988
rradius 56.0572
rwrist 39.9106
rhand -49.8164 -14.46
rfingers 7.12502
rthumb -22.4129 -43.1796
lclavicle -5.87906e-014 4.31363e-014
lhumerus 63.0262 5.15784 49.2638
lradius 71.112
lwrist 7.98366
lhand -15.731 -28.185
lfingers 7.12502
lthumb 10.4597 1.53476
rfemur -38.5561 -15.0621 -2.80237
rtibia 72.7833
rfoot 2.91008 -13.8916
rtoes 25.1961
lfemur 10.1284 3.85884 -7.01421
ltibia 59.3426
lfoot 31.2938 -43.9735
ltoes 46.735
